<mxfile><diagram name="Page-1"><mxGraphModel dx="720" dy="500" grid="1" gridSize="10" guides="1" tooltips="1" connect="1" arrows="1" fold="1" page="1" pageScale="1" pageWidth="827" pageHeight="1169" math="0" shadow="0"><root><mxCell id="0" /><mxCell id="1" parent="0" /><mxCell id="state_0" value="Estado 0&#10;(Inicio)" style="rounded=1;whiteSpace=wrap;html=1;" vertex="1" parent="1" x="100" y="100" width="120" height="80" /><mxCell id="state_1" value="Estado 1&#10;(Dígito)" style="rounded=1;whiteSpace=wrap;html=1;" vertex="1" parent="1" x="300" y="100" width="120" height="80" /><mxCell id="state_2" value="Estado 2&#10;(Parte Decimal)" style="rounded=1;whiteSpace=wrap;html=1;" vertex="1" parent="1" x="300" y="300" width="120" height="80" /><mxCell id="state_3" value="Estado 3&#10;(Aceptación)" style="rounded=1;whiteSpace=wrap;html=1;" vertex="1" parent="1" x="500" y="300" width="120" height="80" /><mxCell id="state_4" value="Estado 4&#10;(Parte Decimal&#10;Sin Parte Entera)" style="rounded=1;whiteSpace=wrap;html=1;" vertex="1" parent="1" x="100" y="300" width="120" height="80" /><mxCell id="state_0-&gt;state_1" style="edgeStyle=orthogonalEdgeStyle;rounded=0;orthogonalLoop=1;exitX=0.5;exitY=0.5;entryX=0.5;entryY=0.5;" edge="1" parent="1" source="state_0" target="state_1" value="0-9" x="150" y="120" /><mxCell id="state_1-&gt;state_1" style="edgeStyle=orthogonalEdgeStyle;rounded=0;orthogonalLoop=1;exitX=0.5;exitY=0.5;entryX=0.5;entryY=0.5;" edge="1" parent="1" source="state_1" target="state_1" value="0-9" x="300" y="120" /><mxCell id="state_1-&gt;state_2" style="edgeStyle=orthogonalEdgeStyle;rounded=0;orthogonalLoop=1;exitX=0.5;exitY=0.5;entryX=0.5;entryY=0.5;" edge="1" parent="1" source="state_1" target="state_2" value="." x="300" y="180" /><mxCell id="state_2-&gt;state_3" style="edgeStyle=orthogonalEdgeStyle;rounded=0;orthogonalLoop=1;exitX=0.5;exitY=0.5;entryX=0.5;entryY=0.5;" edge="1" parent="1" source="state_2" target="state_3" value="0-9" x="300" y="320" /><mxCell id="state_0-&gt;state_4" style="edgeStyle=orthogonalEdgeStyle;rounded=0;orthogonalLoop=1;exitX=0.5;exitY=0.5;entryX=0.5;entryY=0.5;" edge="1" parent="1" source="state_0" target="state_4" value="." x="150" y="300" /><mxCell id="state_4-&gt;state_3" style="edgeStyle=orthogonalEdgeStyle;rounded=0;orthogonalLoop=1;exitX=0.5;exitY=0.5;entryX=0.5;entryY=0.5;" edge="1" parent="1" source="state_4" target="state_3" value="0-9" x="150" y="380" /></root></mxGraphModel></diagram></mxfile>